# xmcd CD database file
#
# Track frame offsets:
#	150
#	24140
#	54370
#	77455
#	95810
#	117043
#	138725
#	169763
#	204925
#	232540
#	251125
#	281115
#
# Disc length: 4082 seconds
#
# Revision: 0
# Processed by: cddbd v1.5PL3 Copyright (c) Steve Scherf et al.
# Submitted via: CDex 1.51
#
DISCID=950ff00c
DTITLE=landes jugend jazz orchester hessen - magic morning
DYEAR=1993
DGENRE=Jazz
TTITLE0=captain grumpy
TTITLE1=hurdy gurdy
TTITLE2=shimmering
TTITLE3=lets talk business
TTITLE4=for heavens sake
TTITLE5=die autobahn 500
TTITLE6=nows you dont
TTITLE7=guaruja
TTITLE8=side trip
TTITLE9=lover man
TTITLE10=niktiamo
TTITLE11=magic morning
EXTD=YEAR: 1993
EXTT0=
EXTT1=
EXTT2=
EXTT3=
EXTT4=
EXTT5=
EXTT6=
EXTT7=
EXTT8=
EXTT9=
EXTT10=
EXTT11=
PLAYORDER=
